<?xml version="1.0" encoding="UTF-8" standalone="no"?>
<svg
   xmlns:dc="http://purl.org/dc/elements/1.1/"
   xmlns:cc="http://creativecommons.org/ns#"
   xmlns:rdf="http://www.w3.org/1999/02/22-rdf-syntax-ns#"
   xmlns:svg="http://www.w3.org/2000/svg"
   xmlns="http://www.w3.org/2000/svg"
   viewBox="0 0 1333.3333 1333.3333"
   height="1333.3333"
   width="1333.3333"
   xml:space="preserve"
   id="svg2"
   version="1.1"><metadata
     id="metadata8"><rdf:RDF><cc:Work
         rdf:about=""><dc:format>image/svg+xml</dc:format><dc:type
           rdf:resource="http://purl.org/dc/dcmitype/StillImage" /></cc:Work></rdf:RDF></metadata><defs
     id="defs6"><clipPath
       id="clipPath18"
       clipPathUnits="userSpaceOnUse"><path
         id="path16"
         d="M 0,1000 H 1000 V 0 H 0 Z" /></clipPath><clipPath
       id="clipPath34"
       clipPathUnits="userSpaceOnUse"><path
         id="path32"
         d="M 0,1000 H 1000 V 0 H 0 Z" /></clipPath><clipPath
       id="clipPath50"
       clipPathUnits="userSpaceOnUse"><path
         id="path48"
         d="M 0,1000 H 1000 V 0 H 0 Z" /></clipPath><clipPath
       id="clipPath62"
       clipPathUnits="userSpaceOnUse"><path
         id="path60"
         d="M 0,1000 H 1000 V 0 H 0 Z" /></clipPath></defs><g
     transform="matrix(1.3333333,0,0,-1.3333333,0,1333.3333)"
     id="g10"><g
       id="g12"><g
         clip-path="url(#clipPath18)"
         id="g14"><g
           transform="translate(365.5801,582.833)"
           id="g20"><path
             id="path22"
             style="fill:#000000;fill-opacity:1;fill-rule:nonzero;stroke:none"
             d="m 0,0 c -8.612,-2.548 -16.382,-7.749 -24.172,-12.032 -6.904,-3.796 -13.578,-7.791 -20.308,-11.843 -4.924,-2.965 -9.982,-5.649 -15.035,-8.381 -3.783,-2.046 -8.044,-4.704 -8.598,-9.389 -0.45,-3.822 3.446,-4.578 6.519,-4.663 6.191,-0.171 10.073,3.051 17.327,7.059 3.15,1.741 7.655,4.027 13.403,6.275 42.121,-70.748 99.81,-113.272 185.678,-109.893 82.981,3.264 147.025,36.99 187.589,112.858 5.84,-3.738 9.826,-7.265 14.478,-8.965 1.431,-0.523 2.97,-0.753 4.558,-0.847 4.337,-0.255 7.705,3.697 6.915,7.969 -0.465,2.509 -1.133,4.62 -2.518,5.327 -19.194,9.809 -38.909,18.645 -58.774,27.039 -0.6,0.254 -1.287,0.298 -2.033,0.202 -5.364,-0.688 -7.396,-7.32 -3.758,-11.32 0.498,-0.547 1.039,-1.026 1.639,-1.409 7.819,-4.982 16.308,-8.91 24.38,-13.179 -23.999,-54.035 -86.974,-101.109 -164.416,-102.103 -84.103,-1.08 -151.384,36.852 -180.108,104.182 5.449,3.425 10.734,7.1 15.959,10.856 2.728,1.961 13.132,7.267 10.07,11.791 C 6.84,2.42 2.633,0.779 0,0" /></g><g
           transform="translate(908.4072,842.9072)"
           id="g24"><path
             id="path26"
             style="fill:#000000;fill-opacity:1;fill-rule:nonzero;stroke:none"
             d="M 0,0 C -21.902,27.174 -53.27,35.788 -83.453,21.017 -96.037,14.86 -107.64,5.96 -118.174,-3.398 c -7.469,-6.635 -11.176,-8.011 -18.965,-0.122 -64.172,64.994 -140.147,107.995 -231.897,118.661 -97.193,11.297 -175.003,-26.412 -238.024,-98.527 -3.402,-3.893 -13.213,-14.324 -9.334,-20.042 6.571,-9.685 20.682,9.332 25.11,12.666 17.68,13.311 34.575,27.741 52.831,40.184 11.969,8.159 17.13,4.681 17.173,-9.878 0.075,-24.819 -0.553,-49.639 -0.685,-74.46 -0.096,-18.077 6.428,-26.359 20.066,-26.099 12.805,0.244 19.255,8.331 19.272,25.4 0.029,30.636 -0.387,61.272 -0.512,91.908 -0.092,22.585 4.012,27.584 26.494,30.217 7.199,0.844 14.666,-0.485 22.002,-0.955 9.323,-0.598 12.321,-5.79 11.976,-14.849 -0.662,-17.411 -0.133,-34.866 -0.75,-52.28 -0.367,-10.333 1.497,-18.335 13.822,-18.251 11.73,0.079 18.866,5.273 18.779,18.221 -0.116,16.898 -0.024,33.815 0.703,50.693 0.208,4.837 2.315,13.335 4.59,13.7 10.627,1.709 22.34,3.486 32.17,0.429 4.847,-1.507 8.906,-13.368 9.107,-20.66 0.945,-34.314 -0.047,-68.681 0.892,-102.996 0.345,-12.594 13.852,-21.863 25.602,-16.037 9.67,4.796 9.731,15.964 10.059,25.348 0.46,13.19 0.13,26.409 0.128,39.616 -0.004,17.009 -0.002,34.018 -10e-4,51.936 0,3.469 3.142,6.093 6.557,5.482 1.81,-0.323 2.894,-0.551 3.845,-1.037 54.989,-28.09 105.44,-62.577 145.174,-110.33 86.798,-104.318 75.521,-240.627 -6.645,-336.573 -69.931,-81.661 -160.721,-113.731 -266.219,-112.045 -45.067,0.72 -86.62,10.741 -124.732,34.951 -61.471,39.05 -97.12,95.701 -111.395,166.001 -5.431,26.744 -11.326,53.638 -12.181,81.014 -0.425,13.618 0.418,27.295 3.118,40.666 1.455,7.209 3.488,14.241 5.921,21.177 1.76,5.017 6.311,10.745 6.435,16.007 0.14,5.955 -7.263,10.022 -10.452,3.811 -6.717,-13.08 -13.889,-25.967 -19.609,-39.469 -5.201,-12.28 -10.651,-16.523 -23.356,-8.364 -15.21,9.767 -32.285,11.572 -47.894,1.281 -10.84,-7.148 -20.944,-16.053 -29.605,-25.754 -36.171,-40.516 -17,-94.516 37.018,-105.12 7.179,-1.409 12.164,-2.954 19.141,-3.811 l 2.392,-0.421 c 2.537,-0.428 6.88,1.893 7.315,3.335 0.419,1.392 1.424,5.787 -0.62,6.509 -3.457,3.444 -10.936,6.393 -18.365,12.079 -10.024,7.673 -21.952,13.485 -30.18,22.675 -6.47,7.226 -12.56,18.683 -11.845,27.708 2.024,25.526 43.437,57.784 75.57,40.713 4.521,-2.402 8.883,-8.839 9.642,-13.953 3.791,-25.521 5.493,-51.36 9.516,-76.837 11.006,-69.697 38.913,-130.365 98.614,-171.903 54.756,-38.098 116.847,-54.981 182.874,-58.173 18.407,-0.89 36.886,-0.337 57.58,-0.19 l 157.253,66.243 c 0.707,0.298 1.34,0.737 1.867,1.294 25.718,27.19 56.228,53.926 79.776,85.805 71.188,96.372 68.366,214.4 9.606,305.982 -18.007,28.065 -17.133,35.366 11.487,53.86 3.984,2.574 8.129,4.987 12.435,6.961 23.729,10.878 51.611,3.445 60.942,-16.261 8.256,-17.434 0.757,-31.677 -9.589,-45.247 -6.263,-8.216 -18.403,-18.307 -17.073,-29.77 0.147,-1.268 0.459,-2.548 1.171,-3.607 1.669,-2.48 5.188,-3.126 8.063,-2.304 10.533,3.009 21.055,16.946 27.308,25.231 C 11.739,-47.519 14.14,-17.543 0,0" /></g></g></g><g
       id="g28"><g
         clip-path="url(#clipPath34)"
         id="g30"><g
           transform="translate(290.3936,813.7783)"
           id="g36"><path
             id="path38"
             style="fill:#ed9403;fill-opacity:1;fill-rule:nonzero;stroke:none"
             d="m 0,0 -3.654,-4.386 c -5.82,-6.986 -16.298,-7.94 -23.284,-2.12 l -82.699,68.898 c -6.987,5.82 -7.941,16.298 -2.12,23.284 l 3.653,4.386 c 5.821,6.986 16.299,7.94 23.285,2.12 L -2.12,23.284 C 4.867,17.464 5.82,6.986 0,0" /></g><g
           transform="translate(237.7969,742.3389)"
           id="g40"><path
             id="path42"
             style="fill:#ed9403;fill-opacity:1;fill-rule:nonzero;stroke:none"
             d="m 0,0 c 0,0 0.587,1.043 0,0 -6.283,-10.836 -16.447,-11.025 -24.875,-5.771 -12.223,8.053 -25.523,16.244 -39.906,24.349 -14.43,8.132 -28.371,15.287 -41.631,21.587 -1.029,0.646 -6.367,4.139 -8.016,11.247 -1.046,4.508 -0.382,9.414 2.244,13.628 5.254,8.427 16.447,11.024 24.875,5.771 12.785,-5.568 26.587,-12.272 41.032,-20.367 C -31.12,41.951 -17.625,33.255 -5.771,24.874 -2.533,21.805 7.719,12.922 0,0" /></g></g></g><g
       id="g44"><g
         clip-path="url(#clipPath50)"
         id="g46"><g
           transform="translate(450.041,275.2285)"
           id="g52"><path
             id="path54"
             style="fill:#ed9403;fill-opacity:1;fill-rule:nonzero;stroke:none"
             d="m 0,0 c 0,0 -161.231,-5.657 -178.203,0 0,0 11.315,-209.318 96.173,-248.919 0,0 42.429,83.444 118.802,118.802 76.373,35.358 271.547,115.973 291.348,123.045 0,0 -52.329,115.973 -55.158,128.703 C 272.962,121.631 15.558,25.457 0,0" /></g></g></g><g
       id="g56"><g
         clip-path="url(#clipPath62)"
         id="g58"><g
           transform="translate(406.3618,240.709)"
           id="g64"><path
             id="path66"
             style="fill:#ffffff;fill-opacity:1;fill-rule:nonzero;stroke:none"
             d="m 0,0 v -18.661 c 0,0 -48.941,-8.287 -37.945,-19.283 6.22,-6.221 38.567,3.731 46.031,0 7.465,-3.733 26.748,-26.127 0.622,-42.922 -26.125,-16.795 -29.858,-19.283 -29.858,-19.283 L -32.347,-79 c 0,0 34.213,14.929 32.969,19.905 -1.244,4.977 -2.613,4.355 -8.771,2.489 -6.158,-1.867 -51.568,-10.582 -51.568,21.149 C -59.717,3.732 0,0 0,0" /></g><g
           transform="translate(459.1997,203.6221)"
           id="g68"><path
             id="path70"
             style="fill:#ffffff;fill-opacity:1;fill-rule:nonzero;stroke:none"
             d="m 0,0 -9.932,21.75 c 0,0 20.543,10.982 25.519,-1.458 C 20.563,7.851 0,0 0,0 m -37.149,29.174 30.342,-74.82 23.016,9.332 -9.953,19.905 c 0,0 44.392,8.461 26.748,47.275 -15.551,34.213 -70.153,-1.692 -70.153,-1.692" /></g><g
           transform="translate(525,259.3701)"
           id="g72"><path
             id="path74"
             style="fill:#ffffff;fill-opacity:1;fill-rule:nonzero;stroke:none"
             d="M 0,0 C 10.748,8.709 19.456,-6.22 19.456,-6.22 L 0,-18.011 c 0,0 -10.748,9.303 0,18.011 m 6.394,-29.521 33.082,19.418 c 0,0 -1.028,44.512 -48.634,23.789 -24.977,-10.873 -17.263,-46.233 0.622,-61.472 11.834,-10.082 29.178,-9.367 43.544,0 7.73,5.151 14.929,13.574 14.929,13.574 l -9.529,12.103 c 0,0 -23.44,-20.14 -34.014,-7.412" /></g><g
           transform="translate(620.416,268.0693)"
           id="g76"><path
             id="path78"
             style="fill:#ffffff;fill-opacity:1;fill-rule:nonzero;stroke:none"
             d="M 0,0 C -4.296,-18.802 -22.191,-25.045 -30.423,-11.729 -39.396,2.785 -30.259,17.86 -14.368,19.947 -4.068,19.947 2.982,13.046 0,0 m 6.787,51.891 -17.389,-6.522 4.613,-12.39 c -10.575,5.598 -58.407,-7.125 -37.002,-51.602 19.468,-40.45 54.429,7.436 54.429,7.436 l 4.859,-11.641 17.932,6.521 z" /></g><g
           transform="translate(631.1846,335.957)"
           id="g80"><path
             id="path82"
             style="fill:#ffffff;fill-opacity:1;fill-rule:nonzero;stroke:none"
             d="m 0,0 35.049,-84.229 19.427,8.435 -12.77,28.948 50.809,-11.027 2.988,19.291 -44.56,10.597 L 67.246,4.891 50.193,11.468 33.826,-24.726 19.708,10.006 Z" /></g><g
           transform="translate(341.9741,670.793)"
           id="g84"><path
             id="path86"
             style="fill:#003a8e;fill-opacity:1;fill-rule:nonzero;stroke:none"
             d="m 0,0 -18.176,11.492 v 19.7 H 81.616 V 14.189 H 0 Z" /></g><g
           transform="translate(668.7891,668.0962)"
           id="g88"><path
             id="path90"
             style="fill:#003a8e;fill-opacity:1;fill-rule:nonzero;stroke:none"
             d="m 0,0 c -5.16,6.878 -10.534,13.503 -16.124,19.876 -5.588,6.371 -11.081,12.489 -16.476,18.352 -1.484,1.563 -2.833,2.911 -4.046,4.045 -1.21,1.133 -2.461,2.053 -3.751,2.756 -1.291,0.704 -2.698,1.232 -4.222,1.583 -1.525,0.352 -3.38,0.528 -5.57,0.528 -1.642,0 -3.205,-0.313 -4.691,-0.938 -1.483,-0.627 -2.773,-1.486 -3.87,-2.58 -1.094,-1.096 -1.952,-2.345 -2.579,-3.752 -0.625,-1.408 -0.939,-2.932 -0.939,-4.574 v -8.208 c 0,-1.642 0.314,-3.186 0.939,-4.632 0.627,-1.447 1.485,-2.717 2.579,-3.811 1.097,-1.096 2.387,-1.955 3.87,-2.58 1.486,-0.627 3.049,-0.938 4.691,-0.938 h 3.518 V -0.938 h -6.567 c -3.594,0 -6.977,0.683 -10.143,2.052 -3.167,1.367 -5.923,3.243 -8.267,5.629 -2.346,2.383 -4.202,5.159 -5.571,8.325 -1.367,3.166 -2.052,6.547 -2.052,10.143 v 12.782 c 0,3.595 0.685,6.978 2.052,10.144 1.369,3.166 3.225,5.94 5.571,8.325 2.344,2.384 5.1,4.261 8.267,5.629 3.166,1.367 6.549,2.053 10.143,2.053 h 2.227 c 2.973,0 5.67,-0.138 8.092,-0.411 2.424,-0.275 4.731,-0.802 6.919,-1.583 2.189,-0.783 4.3,-1.917 6.332,-3.4 2.034,-1.487 4.184,-3.402 6.45,-5.747 5.317,-5.628 10.594,-11.492 15.83,-17.589 C -2.149,29.316 2.737,23.14 7.271,16.886 V 62.384 H 22.163 V 0 Z" /></g></g></g></g></svg>